<svg width="592" height="595" viewBox="0 0 592 595" fill="none" xmlns="http://www.w3.org/2000/svg">
<circle cx="297.313" cy="297.602" r="288.684" stroke="url(#paint0_linear_1303_51)" stroke-width="1.25788"/>
<circle cx="297.313" cy="295.086" r="238.369" stroke="url(#paint1_linear_1303_51)" stroke-width="1.25788"/>
<circle cx="297.313" cy="297.602" r="194.343" stroke="url(#paint2_linear_1303_51)" stroke-width="1.25788"/>
<rect x="76" y="67" width="36" height="36" rx="18" fill="#FAC515"/>
<path d="M102.531 81.5001C102.531 81.8588 102.234 82.1563 101.875 82.1563H86.125C85.7663 82.1563 85.4688 81.8588 85.4688 81.5001C85.4688 81.1413 85.7663 80.8438 86.125 80.8438H87.0175L87.35 79.2601C87.665 77.7288 88.3212 76.3201 90.9287 76.3201H97.0713C99.6788 76.3201 100.335 77.7288 100.65 79.2601L100.982 80.8438H101.875C102.234 80.8438 102.531 81.1413 102.531 81.5001Z" fill="white"/>
<path d="M102.908 86.4525C102.777 85.0087 102.392 83.4688 99.5829 83.4688H88.4179C85.6091 83.4688 85.2329 85.0087 85.0929 86.4525L84.6029 91.7812C84.5416 92.4462 84.7604 93.1113 85.2154 93.61C85.6791 94.1175 86.3354 94.4062 87.0354 94.4062H88.6804C90.0979 94.4062 90.3691 93.5925 90.5441 93.0587L90.7191 92.5338C90.9204 91.93 90.9729 91.7812 91.7604 91.7812H96.2404C97.0279 91.7812 97.0541 91.8688 97.2816 92.5338L97.4566 93.0587C97.6316 93.5925 97.9029 94.4062 99.3204 94.4062H100.965C101.657 94.4062 102.322 94.1175 102.785 93.61C103.24 93.1113 103.459 92.4462 103.398 91.7812L102.908 86.4525ZM91.3754 88.2812H88.7504C88.3916 88.2812 88.0941 87.9837 88.0941 87.625C88.0941 87.2663 88.3916 86.9688 88.7504 86.9688H91.3754C91.7341 86.9688 92.0316 87.2663 92.0316 87.625C92.0316 87.9837 91.7341 88.2812 91.3754 88.2812ZM99.2504 88.2812H96.6254C96.2666 88.2812 95.9691 87.9837 95.9691 87.625C95.9691 87.2663 96.2666 86.9688 96.6254 86.9688H99.2504C99.6091 86.9688 99.9066 87.2663 99.9066 87.625C99.9066 87.9837 99.6091 88.2812 99.2504 88.2812Z" fill="white"/>
<rect x="519" y="439" width="36" height="36" rx="18" fill="#FAC515"/>
<path fill-rule="evenodd" clip-rule="evenodd" d="M533.11 462.397C533.513 462.665 533.621 463.208 533.353 463.61L531.603 466.235C531.335 466.638 530.792 466.746 530.39 466.478C529.988 466.21 529.879 465.667 530.147 465.265L531.897 462.64C532.165 462.238 532.708 462.129 533.11 462.397ZM540.89 462.397C541.292 462.129 541.835 462.238 542.103 462.64L543.853 465.265C544.121 465.667 544.013 466.21 543.61 466.478C543.208 466.746 542.665 466.638 542.397 466.235L540.647 463.61C540.379 463.208 540.488 462.665 540.89 462.397Z" fill="white"/>
<path fill-rule="evenodd" clip-rule="evenodd" d="M544.875 459.406V457.028C544.876 457.01 544.876 456.992 544.875 456.974V451.75C544.875 449.334 542.916 447.375 540.5 447.375H533.5C531.084 447.375 529.125 449.334 529.125 451.75V459.406H531.312C531.675 459.406 531.969 459.7 531.969 460.062C531.969 460.425 531.675 460.719 531.312 460.719H529.263C529.749 462.606 531.461 464 533.5 464H540.5C542.539 464 544.251 462.606 544.737 460.719H542.688C542.325 460.719 542.031 460.425 542.031 460.062C542.031 459.7 542.325 459.406 542.688 459.406H544.875ZM533.5 449.125C532.05 449.125 530.875 450.3 530.875 451.75V456.321C532.724 456.766 534.674 457 536.563 457C538.462 457 541.112 456.711 543.125 456.298V451.75C543.125 450.3 541.95 449.125 540.5 449.125H533.5Z" fill="white"/>
<rect x="490" y="84" width="36" height="36" rx="18" fill="#FAC515"/>
<path d="M508 93.25C503.179 93.25 499.25 97.1787 499.25 102C499.25 106.821 503.179 110.75 508 110.75C512.821 110.75 516.75 106.821 516.75 102C516.75 97.1787 512.821 93.25 508 93.25ZM511.806 105.124C511.684 105.334 511.465 105.447 511.237 105.447C511.124 105.447 511.01 105.421 510.905 105.351L508.193 103.732C507.519 103.33 507.02 102.446 507.02 101.667V98.08C507.02 97.7212 507.318 97.4237 507.676 97.4237C508.035 97.4237 508.333 97.7212 508.333 98.08V101.667C508.333 101.982 508.595 102.446 508.866 102.604L511.579 104.222C511.894 104.406 511.999 104.809 511.806 105.124Z" fill="white"/>
<rect x="576" y="321" width="16" height="16" rx="8" fill="#FDE272"/>
<rect x="322" y="579" width="16" height="16" rx="8" fill="#FDE272"/>
<rect x="102" y="432" width="16" height="16" rx="8" fill="#FDE272"/>
<rect x="469" y="360" width="16" height="16" rx="8" fill="#FDE272"/>
<rect x="256" width="16" height="16" rx="8" fill="#FDE272"/>
<rect x="484" y="151" width="16" height="16" rx="8" fill="#FDE272"/>
<rect x="126" y="185" width="16" height="16" rx="8" fill="#FDE272"/>
<rect y="270" width="16" height="16" rx="8" fill="#FDE272"/>
<rect x="58" y="475" width="36" height="36" rx="18" fill="#FAC515"/>
<path d="M79.6663 484.25H72.3337C69.1487 484.25 67.25 486.149 67.25 489.334V496.658C67.25 499.851 69.1487 501.75 72.3337 501.75H79.6575C82.8425 501.75 84.7412 499.851 84.7412 496.666V489.334C84.75 486.149 82.8513 484.25 79.6663 484.25ZM81.6963 494.041C81.6963 494.566 81.2938 494.829 80.8125 494.619L77.8812 493.359C77.54 493.219 77.2687 493.394 77.2687 493.761V495.38C77.2687 495.52 77.3475 495.721 77.4525 495.826L78.8875 497.27C79.0363 497.419 79.1063 497.716 79.0363 497.918L78.7562 498.757C78.6337 499.125 78.2138 499.3 77.8725 499.125L76.4113 497.882C76.1838 497.699 75.8162 497.699 75.5975 497.882L74.1275 499.125C73.7775 499.3 73.3663 499.125 73.2438 498.749L72.9637 497.909C72.8937 497.708 72.9637 497.41 73.1125 497.261L74.5737 495.826C74.67 495.73 74.7575 495.529 74.7575 495.38V493.761C74.7575 493.394 74.4775 493.21 74.145 493.359L71.2138 494.619C70.7238 494.829 70.33 494.566 70.33 494.041V493.228C70.33 492.808 70.6537 492.317 71.0387 492.151L74.4863 490.664C74.6263 490.602 74.7487 490.419 74.7487 490.261V488.45C74.7487 487.855 75.1775 487.146 75.7113 486.884C75.9038 486.788 76.1225 486.788 76.315 486.884C76.84 487.155 77.2775 487.855 77.2775 488.45V490.261C77.2775 490.419 77.3913 490.602 77.54 490.664L80.9875 492.151C81.3813 492.317 81.6963 492.808 81.6963 493.228V494.041Z" fill="white"/>
<defs>
<linearGradient id="paint0_linear_1303_51" x1="297.313" y1="8.28931" x2="297.313" y2="586.915" gradientUnits="userSpaceOnUse">
<stop offset="0.055" stop-color="#FAC515"/>
<stop offset="0.845" stop-color="#F7EABE"/>
<stop offset="1" stop-color="#F7EDCC"/>
</linearGradient>
<linearGradient id="paint1_linear_1303_51" x1="297.313" y1="56.0889" x2="297.313" y2="534.084" gradientUnits="userSpaceOnUse">
<stop offset="0.055" stop-color="#FAC515"/>
<stop offset="0.845" stop-color="#F7EABE"/>
<stop offset="1" stop-color="#F7EDCC"/>
</linearGradient>
<linearGradient id="paint2_linear_1303_51" x1="297.313" y1="102.631" x2="297.313" y2="492.574" gradientUnits="userSpaceOnUse">
<stop offset="0.055" stop-color="#FAC515"/>
<stop offset="0.845" stop-color="#F7EABE"/>
<stop offset="1" stop-color="#F7EDCC"/>
</linearGradient>
</defs>
</svg>
