<svg width="128" height="40" viewBox="0 0 128 40" fill="none" xmlns="http://www.w3.org/2000/svg">
<rect width="40" height="40" rx="7.54717" fill="#364152"/>
<path d="M12.5345 20.7506H15.7345M9.33447 16.4173L11.4678 17.5006L12.8232 13.371C13.1029 12.5186 13.2428 12.0924 13.5022 11.7773C13.7314 11.4991 14.0256 11.2837 14.3579 11.151C14.7343 11.0006 15.1767 11.0006 16.0613 11.0006H23.9409C24.8256 11.0006 25.268 11.0006 25.6443 11.151C25.9767 11.2837 26.2709 11.4991 26.5 11.7773C26.7595 12.0924 26.8994 12.5186 27.1791 13.371L28.5345 17.5006L30.6678 16.4173M24.2678 20.7506H27.4678M14.4545 17.5006H25.5478C27.34 17.5006 28.2361 17.5006 28.9206 17.8548C29.5227 18.1664 30.0122 18.6636 30.319 19.2751C30.6678 19.9704 30.6678 20.8804 30.6678 22.7006V25.6256C30.6678 26.129 30.6678 26.3807 30.6268 26.59C30.4585 27.4495 29.7969 28.1213 28.9507 28.2923C28.7446 28.3339 28.4968 28.3339 28.0011 28.3339H27.4678C26.2896 28.3339 25.3345 27.3639 25.3345 26.1673C25.3345 25.8681 25.0957 25.6256 24.8011 25.6256H15.2011C14.9066 25.6256 14.6678 25.8681 14.6678 26.1673C14.6678 27.3639 13.7127 28.3339 12.5345 28.3339H12.0011C11.5055 28.3339 11.2577 28.3339 11.0516 28.2923C10.2053 28.1213 9.5438 27.4495 9.37546 26.59C9.33447 26.3807 9.33447 26.129 9.33447 25.6256V22.7006C9.33447 20.8804 9.33447 19.9704 9.68325 19.2751C9.99005 18.6636 10.4796 18.1664 11.0817 17.8548C11.7662 17.5006 12.6623 17.5006 14.4545 17.5006Z" stroke="#FAC515" stroke-width="2" stroke-linecap="round" stroke-linejoin="round"/>
<path d="M115.107 17.1371C115.107 18.6689 114.208 19.5288 112.581 19.5288C110.923 19.5288 109.978 18.6554 109.978 17.1371V4.26492C109.978 2.0882 111.109 1.05359 113.542 1.05359H119.137C123.879 1.05359 126.793 3.21687 126.793 6.73724C126.793 9.04832 125.491 10.8623 123.197 11.7894L125.956 16.0219C126.235 16.4384 126.374 16.949 126.374 17.4193C126.374 18.642 125.32 19.5019 123.833 19.5019C122.484 19.5019 121.771 19.0182 120.934 17.594L118.145 12.8777H115.107V17.1371ZM115.107 9.73359H118.439C120.47 9.73359 121.709 8.80647 121.709 7.14034C121.709 5.50108 120.485 4.57396 118.439 4.57396H115.107V9.73359Z" fill="#364152"/>
<path d="M91.487 19.5441C90.0922 19.5441 89.1313 18.7916 89.1313 17.7167C89.1313 17.2733 89.2708 16.7627 89.6273 15.8624L94.3076 3.97111C95.1445 1.79439 96.3533 0.921021 98.585 0.921021C100.817 0.921021 101.995 1.78096 102.847 3.97111L107.512 15.8624C107.791 16.6149 107.93 17.1524 107.93 17.6226C107.93 18.7916 106.969 19.5441 105.497 19.5441C104.133 19.5441 103.343 18.8991 102.831 17.3808L102.026 15.1906H94.912L94.0906 17.3808C93.5792 18.9394 92.8508 19.5441 91.487 19.5441ZM95.9659 11.9793H100.987L98.616 5.0326H98.368L95.9659 11.9793Z" fill="#364152"/>
<path d="M67.7457 19.5292C66.2734 19.5292 65.4985 18.723 65.4985 17.2181V3.78155C65.4985 1.99449 66.6764 0.906128 68.5671 0.906128C70.2099 0.906128 71.2792 1.61826 72.1006 3.53969L76.2075 12.7034H76.378L80.4694 3.52625C81.3063 1.57795 82.3136 0.906128 84.0339 0.906128C85.9556 0.906128 87.056 1.95418 87.056 3.78155V17.2181C87.056 18.6827 86.2036 19.5292 84.7158 19.5292C83.259 19.5292 82.4841 18.723 82.4841 17.2181V7.98718H82.3446L78.6562 16.1566C78.0517 17.5271 77.3388 17.9571 76.3005 17.9571C75.2466 17.9571 74.5182 17.5002 73.9138 16.1566L70.2099 7.98718H70.0859V17.2181C70.0859 18.6827 69.2335 19.5292 67.7457 19.5292Z" fill="#364152"/>
<path d="M46.884 19.5441C45.4892 19.5441 44.5283 18.7916 44.5283 17.7167C44.5283 17.2733 44.6678 16.7627 45.0242 15.8624L49.7046 3.97111C50.5415 1.79439 51.7503 0.921021 53.982 0.921021C56.2137 0.921021 57.3915 1.78096 58.2439 3.97111L62.9087 15.8624C63.1877 16.6149 63.3271 17.1524 63.3271 17.6226C63.3271 18.7916 62.3663 19.5441 60.894 19.5441C59.5302 19.5441 58.7398 18.8991 58.2284 17.3808L57.4225 15.1906H50.309L49.4876 17.3808C48.9762 18.9394 48.2478 19.5441 46.884 19.5441ZM51.3628 11.9793H56.3841L54.013 5.0326H53.765L51.3628 11.9793Z" fill="#364152"/>
<rect x="89.0894" y="24.072" width="36.6339" height="15.0221" rx="2.10792" fill="#364152"/>
<path d="M113.655 36.325C112.99 36.325 112.64 35.9143 112.64 35.1479V28.3044C112.64 27.3942 113.172 26.8398 114.027 26.8398C114.769 26.8398 115.253 27.2025 115.624 28.1812L117.481 32.8484H117.558L119.407 28.1743C119.785 27.182 120.241 26.8398 121.018 26.8398C121.887 26.8398 122.384 27.3736 122.384 28.3044V35.1479C122.384 35.8938 121.999 36.325 121.327 36.325C120.668 36.325 120.318 35.9143 120.318 35.1479V30.4464H120.255L118.587 34.6072C118.314 35.3053 117.992 35.5243 117.523 35.5243C117.046 35.5243 116.717 35.2916 116.444 34.6072L114.769 30.4464H114.713V35.1479C114.713 35.8938 114.328 36.325 113.655 36.325Z" fill="white"/>
<path d="M102.892 32.1666V31.0471C102.892 28.3412 104.469 26.7067 107.137 26.7067C109.806 26.7067 111.376 28.3481 111.376 31.0471V32.1666C111.376 34.845 109.806 36.459 107.137 36.459C104.455 36.459 102.892 34.8382 102.892 32.1666ZM105.222 31.0334V32.1666C105.222 33.6981 105.934 34.6046 107.137 34.6046C108.334 34.6046 109.045 33.6981 109.045 32.1666V31.0334C109.045 29.4813 108.327 28.561 107.137 28.561C105.934 28.561 105.222 29.4813 105.222 31.0334Z" fill="white"/>
<path d="M94.0674 32.0361V31.0197C94.0674 28.3206 95.5798 26.7067 98.2003 26.7067C99.4409 26.7067 100.542 27.0775 101.225 27.73C101.685 28.1695 101.964 28.7052 101.964 29.131C101.964 29.6804 101.581 30.0444 101.023 30.0444C100.654 30.0444 100.382 29.9071 100.019 29.5431C99.4967 28.9112 99.0088 28.6228 98.3397 28.6228C97.0852 28.6228 96.3743 29.5362 96.3743 31.1227V31.9331C96.3743 33.6226 97.0713 34.536 98.3397 34.536C99.0158 34.536 99.5594 34.2475 100.054 33.6294C100.424 33.2517 100.675 33.1212 101.03 33.1212C101.595 33.1212 101.978 33.4921 101.978 34.0346C101.978 34.5772 101.601 35.1815 100.995 35.628C100.312 36.1499 99.3503 36.459 98.2003 36.459C95.538 36.459 94.0674 34.8519 94.0674 32.0361Z" fill="white"/>
<path d="M91.7241 35.9988C91.7241 35.3761 92.2398 34.8667 92.8562 34.8667C93.4788 34.8667 93.9883 35.3761 93.9883 35.9988C93.9883 36.6214 93.4788 37.1309 92.8562 37.1309C92.2398 37.1309 91.7241 36.6214 91.7241 35.9988Z" fill="white"/>
<path d="M77.5905 37.1462C76.4943 37.1462 75.8784 36.5812 75.8784 35.575V27.0041C75.8784 25.5653 76.5048 25.0092 78.1333 25.0092H81.7975C84.9189 25.0092 86.892 26.6157 86.892 29.0961C86.892 31.7353 84.8876 33.2094 81.6201 33.2094H79.3234V35.575C79.3234 36.5724 78.697 37.1462 77.5905 37.1462ZM79.3339 31.038H80.8998C82.6849 31.038 83.4783 30.5437 83.4783 29.149C83.4783 27.9486 82.6953 27.2601 81.286 27.2601H79.3339V31.038Z" fill="#364152"/>
<path d="M71.8254 37.1462C70.7188 37.1462 70.082 36.5725 70.082 35.575V26.4922C70.082 25.4859 70.698 24.921 71.8045 24.921C72.9111 24.921 73.5375 25.4948 73.5375 26.4922V35.575C73.5375 36.5813 72.9215 37.1462 71.8254 37.1462Z" fill="#364152"/>
<path d="M60.4593 35.575C60.4593 36.5812 59.8539 37.1462 58.7577 37.1462C57.6407 37.1462 57.0039 36.5724 57.0039 35.575V27.1188C57.0039 25.6889 57.766 25.0092 59.405 25.0092H63.1736C66.368 25.0092 68.3306 26.4303 68.3306 28.743C68.3306 30.2612 67.4537 31.4528 65.9087 32.0619L67.7669 34.8423C67.9548 35.116 68.0488 35.4514 68.0488 35.7603C68.0488 36.5636 67.3389 37.1285 66.3367 37.1285C65.4285 37.1285 64.9483 36.8107 64.3845 35.8751L62.5055 32.7769H60.4593V35.575ZM60.4593 30.7114H62.7038C64.0714 30.7114 64.9065 30.1023 64.9065 29.0078C64.9065 27.9309 64.0818 27.3219 62.7038 27.3219H60.4593V30.7114Z" fill="#364152"/>
<path d="M50.3431 37.1462C49.2678 37.1462 48.6206 36.5636 48.6206 35.6103V27.4013H45.9168C45.1234 27.4013 44.5283 26.8893 44.5283 26.2097C44.5283 25.5212 45.1234 25.0092 45.9168 25.0092H54.8007C55.5941 25.0092 56.1787 25.5212 56.1787 26.2097C56.1787 26.8893 55.5941 27.4013 54.8007 27.4013H52.076V35.6103C52.076 36.5636 51.4183 37.1462 50.3431 37.1462Z" fill="#364152"/>
</svg>
