<svg width="152" height="45" viewBox="0 0 152 45" fill="none" xmlns="http://www.w3.org/2000/svg">
<rect x="1.05944" y="0.559441" width="149.93" height="43.6364" rx="11.4406" fill="#202939"/>
<rect x="1.05944" y="0.559441" width="149.93" height="43.6364" rx="11.4406" stroke="#DCDFEA" stroke-width="1.11888"/>
<path d="M91.7175 21.4852V24.0486H90.1108V25.7297H91.7175V31.4415C91.7175 33.3919 92.5999 34.1721 94.8196 34.1721C95.2097 34.1721 95.5812 34.1256 95.9062 34.0699V32.4074C95.6276 32.4353 95.4511 32.4539 95.1447 32.4539C94.1509 32.4539 93.7144 31.9895 93.7144 30.9307V25.7297H95.9062V24.0486H93.7144V21.4852H91.7175Z" fill="white"/>
<path d="M101.561 34.3114C104.514 34.3114 106.325 32.3331 106.325 29.0546C106.325 25.7947 104.505 23.8071 101.561 23.8071C98.6074 23.8071 96.7871 25.7947 96.7871 29.0546C96.7871 32.3331 98.5982 34.3114 101.561 34.3114ZM101.561 32.5375C99.8241 32.5375 98.8489 31.2651 98.8489 29.0546C98.8489 26.8628 99.8241 25.5811 101.561 25.5811C103.288 25.5811 104.273 26.8628 104.273 29.0546C104.273 31.2558 103.288 32.5375 101.561 32.5375Z" fill="white"/>
<path d="M107.875 34.1164H109.872V28.1444C109.872 26.7234 110.94 25.7668 112.454 25.7668C112.807 25.7668 113.401 25.8318 113.568 25.8876V23.9186C113.355 23.8629 112.974 23.835 112.677 23.835C111.358 23.835 110.234 24.5594 109.946 25.5532H109.797V24.0022H107.875V34.1164Z" fill="white"/>
<path d="M118.526 25.5068C120.003 25.5068 120.969 26.5377 121.015 28.1259H115.907C116.019 26.547 117.05 25.5068 118.526 25.5068ZM121.006 31.3858C120.635 32.1753 119.808 32.6118 118.601 32.6118C117.003 32.6118 115.972 31.488 115.907 29.714V29.6026H123.049V28.906C123.049 25.7297 121.35 23.8071 118.536 23.8071C115.684 23.8071 113.873 25.8597 113.873 29.0918C113.873 32.3239 115.647 34.3114 118.545 34.3114C120.858 34.3114 122.474 33.1969 122.929 31.3858H121.006Z" fill="white"/>
<path d="M78.6226 30.3813C78.7766 32.8649 80.8463 34.4533 83.9267 34.4533C87.2189 34.4533 89.2789 32.7879 89.2789 30.1311C89.2789 28.0422 88.1045 26.887 85.2551 26.2228L83.7246 25.8474C81.9148 25.4238 81.1832 24.8558 81.1832 23.8643C81.1832 22.6129 82.3191 21.7947 84.023 21.7947C85.6402 21.7947 86.7568 22.5937 86.959 23.874H89.0575C88.9324 21.5348 86.8724 19.8887 84.0519 19.8887C81.0196 19.8887 78.998 21.5348 78.998 24.0087C78.998 26.0495 80.1436 27.2624 82.656 27.8496L84.4465 28.2828C86.2852 28.716 87.0938 29.3513 87.0938 30.4102C87.0938 31.6424 85.8231 32.5376 84.0904 32.5376C82.2325 32.5376 80.9426 31.7002 80.7597 30.3813H78.6226Z" fill="white"/>
<path d="M57.9375 23.835C56.5629 23.835 55.3741 24.5223 54.7611 25.6739H54.6125V24.0022H52.69V37.4785H54.6868V32.5839H54.8447C55.3741 33.652 56.5165 34.2835 57.9561 34.2835C60.5102 34.2835 62.1355 32.2681 62.1355 29.0546C62.1355 25.8411 60.5102 23.835 57.9375 23.835ZM57.3709 32.491C55.6992 32.491 54.6497 31.1722 54.6497 29.0639C54.6497 26.9463 55.6992 25.6275 57.3802 25.6275C59.0706 25.6275 60.0829 26.9185 60.0829 29.0546C60.0829 31.2001 59.0706 32.491 57.3709 32.491Z" fill="white"/>
<path d="M69.1227 23.835C67.7482 23.835 66.5593 24.5223 65.9464 25.6739H65.7978V24.0022H63.8752V37.4785H65.8721V32.5839H66.03C66.5593 33.652 67.7017 34.2835 69.1413 34.2835C71.6954 34.2835 73.3207 32.2681 73.3207 29.0546C73.3207 25.8411 71.6954 23.835 69.1227 23.835ZM68.5562 32.491C66.8844 32.491 65.8349 31.1722 65.8349 29.0639C65.8349 26.9463 66.8844 25.6275 68.5655 25.6275C70.2558 25.6275 71.2682 26.9185 71.2682 29.0546C71.2682 31.2001 70.2558 32.491 68.5562 32.491Z" fill="white"/>
<path d="M49.1073 34.1164H51.3984L46.3831 20.2256H44.0632L39.0479 34.1164H41.2619L42.5422 30.4295H47.8367L49.1073 34.1164ZM45.1124 22.7477H45.2761L47.288 28.6197H43.0909L45.1124 22.7477Z" fill="white"/>
<path d="M40.3906 9.74695V16.4479H42.81C44.8069 16.4479 45.9632 15.2173 45.9632 13.0765C45.9632 10.9683 44.7976 9.74695 42.81 9.74695H40.3906ZM41.4308 10.6943H42.6939C44.0824 10.6943 44.9044 11.5766 44.9044 13.0905C44.9044 14.6276 44.0964 15.5006 42.6939 15.5006H41.4308V10.6943Z" fill="white"/>
<path d="M49.5045 16.5455C50.9813 16.5455 51.8868 15.5563 51.8868 13.9171C51.8868 12.2871 50.9766 11.2933 49.5045 11.2933C48.0278 11.2933 47.1176 12.2871 47.1176 13.9171C47.1176 15.5563 48.0232 16.5455 49.5045 16.5455ZM49.5045 15.6585C48.6362 15.6585 48.1486 15.0223 48.1486 13.9171C48.1486 12.8211 48.6362 12.1803 49.5045 12.1803C50.3683 12.1803 50.8605 12.8211 50.8605 13.9171C50.8605 15.0177 50.3683 15.6585 49.5045 15.6585Z" fill="white"/>
<path d="M59.5983 11.3908H58.5999L57.699 15.2498H57.6201L56.5798 11.3908H55.6232L54.583 15.2498H54.5087L53.6032 11.3908H52.5908L53.984 16.4479H55.0102L56.0504 12.7236H56.1294L57.1742 16.4479H58.2098L59.5983 11.3908Z" fill="white"/>
<path d="M60.7481 16.4479H61.7465V13.4898C61.7465 12.7004 62.2156 12.2082 62.9539 12.2082C63.6923 12.2082 64.0452 12.6122 64.0452 13.4248V16.4479H65.0436V13.1741C65.0436 11.9713 64.4214 11.2933 63.2929 11.2933C62.5313 11.2933 62.0298 11.6323 61.7837 12.1942H61.7094V11.3908H60.7481V16.4479Z" fill="white"/>
<path d="M66.616 16.4479H67.6144V9.41724H66.616V16.4479Z" fill="white"/>
<path d="M71.3694 16.5455C72.8461 16.5455 73.7517 15.5563 73.7517 13.9171C73.7517 12.2871 72.8415 11.2933 71.3694 11.2933C69.8927 11.2933 68.9825 12.2871 68.9825 13.9171C68.9825 15.5563 69.888 16.5455 71.3694 16.5455ZM71.3694 15.6585C70.501 15.6585 70.0134 15.0223 70.0134 13.9171C70.0134 12.8211 70.501 12.1803 71.3694 12.1803C72.2332 12.1803 72.7254 12.8211 72.7254 13.9171C72.7254 15.0177 72.2332 15.6585 71.3694 15.6585Z" fill="white"/>
<path d="M76.7265 15.691C76.1832 15.691 75.7885 15.4263 75.7885 14.9712C75.7885 14.5254 76.1042 14.2886 76.8008 14.2421L78.036 14.1632V14.5858C78.036 15.2127 77.4788 15.691 76.7265 15.691ZM76.4711 16.5315C77.1352 16.5315 77.6878 16.2436 77.9896 15.7374H78.0686V16.4479H79.0298V12.993C79.0298 11.9249 78.3147 11.2933 77.0469 11.2933C75.8999 11.2933 75.0826 11.8506 74.9804 12.719H75.9463C76.0578 12.3614 76.4432 12.1571 77.0005 12.1571C77.6831 12.1571 78.036 12.4589 78.036 12.993V13.4295L76.6661 13.5084C75.4634 13.5827 74.7854 14.1075 74.7854 15.0177C74.7854 15.9418 75.4959 16.5315 76.4711 16.5315Z" fill="white"/>
<path d="M82.4179 16.5315C83.1145 16.5315 83.7043 16.2018 84.0061 15.6492H84.0851V16.4479H85.0417V9.41724H84.0433V12.1942H83.969C83.695 11.637 83.1099 11.3073 82.4179 11.3073C81.1409 11.3073 80.3189 12.3196 80.3189 13.9171C80.3189 15.5192 81.1316 16.5315 82.4179 16.5315ZM82.7012 12.2035C83.5371 12.2035 84.0618 12.8676 84.0618 13.9217C84.0618 14.9805 83.5417 15.6353 82.7012 15.6353C81.856 15.6353 81.3499 14.9898 81.3499 13.9171C81.3499 12.8536 81.8607 12.2035 82.7012 12.2035Z" fill="white"/>
<path d="M91.5161 16.5455C92.9928 16.5455 93.8983 15.5563 93.8983 13.9171C93.8983 12.2871 92.9882 11.2933 91.5161 11.2933C90.0393 11.2933 89.1292 12.2871 89.1292 13.9171C89.1292 15.5563 90.0347 16.5455 91.5161 16.5455ZM91.5161 15.6585C90.6477 15.6585 90.1601 15.0223 90.1601 13.9171C90.1601 12.8211 90.6477 12.1803 91.5161 12.1803C92.3798 12.1803 92.8721 12.8211 92.8721 13.9171C92.8721 15.0177 92.3798 15.6585 91.5161 15.6585Z" fill="white"/>
<path d="M95.22 16.4479H96.2184V13.4898C96.2184 12.7004 96.6874 12.2082 97.4258 12.2082C98.1641 12.2082 98.5171 12.6122 98.5171 13.4248V16.4479H99.5155V13.1741C99.5155 11.9713 98.8932 11.2933 97.7648 11.2933C97.0032 11.2933 96.5017 11.6323 96.2555 12.1942H96.1812V11.3908H95.22V16.4479Z" fill="white"/>
<path d="M104.114 10.1324V11.4141H103.31V12.2546H104.114V15.1105C104.114 16.0857 104.555 16.4758 105.665 16.4758C105.86 16.4758 106.046 16.4526 106.208 16.4247V15.5935C106.069 15.6074 105.981 15.6167 105.827 15.6167C105.33 15.6167 105.112 15.3845 105.112 14.8551V12.2546H106.208V11.4141H105.112V10.1324H104.114Z" fill="white"/>
<path d="M107.548 16.4479H108.547V13.4945C108.547 12.7283 109.002 12.2128 109.819 12.2128C110.525 12.2128 110.901 12.6215 110.901 13.4295V16.4479H111.9V13.1834C111.9 11.9806 111.236 11.298 110.158 11.298C109.397 11.298 108.863 11.637 108.616 12.2035H108.537V9.41724H107.548V16.4479Z" fill="white"/>
<path d="M115.501 12.1431C116.24 12.1431 116.723 12.6586 116.746 13.4527H114.192C114.247 12.6632 114.763 12.1431 115.501 12.1431ZM116.741 15.0827C116.555 15.4774 116.142 15.6956 115.538 15.6956C114.74 15.6956 114.224 15.1337 114.192 14.2468V14.1911H117.763V13.8428C117.763 12.2546 116.913 11.2933 115.506 11.2933C114.08 11.2933 113.175 12.3196 113.175 13.9356C113.175 15.5517 114.062 16.5455 115.511 16.5455C116.667 16.5455 117.475 15.9882 117.702 15.0827H116.741Z" fill="white"/>
<path d="M28.2137 22.7132C28.2379 20.8323 29.248 19.0526 30.8504 18.0675C29.8395 16.6238 28.1463 15.7084 26.3848 15.6533C24.5059 15.4561 22.6844 16.7776 21.727 16.7776C20.751 16.7776 19.2769 15.6729 17.6895 15.7055C15.6204 15.7724 13.6915 16.9488 12.6848 18.7577C10.5209 22.5042 12.135 28.0103 14.2078 31.0387C15.2449 32.5216 16.457 34.178 18.0429 34.1193C19.5949 34.0549 20.1745 33.1296 22.0479 33.1296C23.9038 33.1296 24.4476 34.1193 26.0658 34.0819C27.7311 34.0549 28.7803 32.5924 29.781 31.0955C30.5262 30.0388 31.0996 28.871 31.48 27.6353C29.5229 26.8076 28.216 24.8381 28.2137 22.7132Z" fill="white"/>
<path d="M25.1573 13.6617C26.0653 12.5717 26.5126 11.1706 26.4043 9.7561C25.0171 9.9018 23.7357 10.5648 22.8154 11.613C21.9155 12.6372 21.4472 14.0136 21.5357 15.374C22.9234 15.3883 24.2877 14.7433 25.1573 13.6617Z" fill="white"/>
</svg>
