<svg width="68" height="40" viewBox="0 0 68 40" fill="none" xmlns="http://www.w3.org/2000/svg">
<rect x="0.464355" width="67.3785" height="40" rx="3.2" fill="#16B364"/>
<path d="M55.3545 16.1623C55.3545 17.0829 54.8861 17.5997 54.0382 17.5997C53.1742 17.5997 52.6816 17.0748 52.6816 16.1623V8.4265C52.6816 7.11836 53.2711 6.49658 54.5389 6.49658H57.454C59.9249 6.49658 61.443 7.79665 61.443 9.9123C61.443 11.3012 60.7647 12.3913 59.5696 12.9485L61.0069 15.4921C61.1523 15.7424 61.225 16.0493 61.225 16.3319C61.225 17.0667 60.6759 17.5835 59.9007 17.5835C59.1982 17.5835 58.8267 17.2928 58.3907 16.4369L56.9372 13.6026H55.3545V16.1623ZM55.3545 11.713H57.0906C58.1484 11.713 58.7944 11.1558 58.7944 10.1545C58.7944 9.1694 58.1565 8.61223 57.0906 8.61223H55.3545V11.713Z" fill="white"/>
<path d="M43.46 15.9928V8.02275C43.46 7.03761 44.001 6.49658 45.0104 6.49658H50.0088C50.6225 6.49658 51.0585 6.93263 51.0585 7.56248C51.0585 8.18425 50.6225 8.61223 50.0088 8.61223H46.1005V10.9943H49.815C50.3883 10.9943 50.7759 11.3981 50.7759 11.9795C50.7759 12.569 50.3883 12.9485 49.815 12.9485H46.1005V15.4033H49.9765C50.6225 15.4033 51.0585 15.8232 51.0585 16.4611C51.0585 17.1071 50.6225 17.5189 49.9684 17.5189H45.0104C44.001 17.5189 43.46 16.986 43.46 15.9928Z" fill="white"/>
<path d="M37.2266 14.6606L39.2857 7.71612C39.5441 6.77943 39.9398 6.3999 40.6503 6.3999C41.4175 6.3999 41.9585 6.87633 41.9585 7.57885C41.9585 7.84532 41.8697 8.25715 41.7485 8.63667L39.3664 15.7184C38.9385 17.0427 38.2925 17.5999 37.1377 17.5999C35.9669 17.5999 35.2966 17.0347 34.8767 15.7184L32.4946 8.63667C32.3573 8.23292 32.2847 7.86147 32.2847 7.60307C32.2847 6.89248 32.8338 6.3999 33.6009 6.3999C34.2873 6.3999 34.7314 6.82788 34.9979 7.71612L37.1054 14.6606H37.2266Z" fill="white"/>
<path d="M29.5468 17.6001C28.6908 17.6001 28.1982 17.0752 28.1982 16.1628V7.85361C28.1982 6.93306 28.6747 6.41626 29.5306 6.41626C30.3866 6.41626 30.8711 6.94113 30.8711 7.85361V16.1628C30.8711 17.0833 30.3946 17.6001 29.5468 17.6001Z" fill="white"/>
<path d="M20.4223 16.1623C20.4223 17.0829 19.954 17.5997 19.1061 17.5997C18.2421 17.5997 17.7495 17.0748 17.7495 16.1623V8.4265C17.7495 7.11836 18.339 6.49658 19.6068 6.49658H22.5218C24.9928 6.49658 26.5109 7.79665 26.5109 9.9123C26.5109 11.3012 25.8326 12.3913 24.6375 12.9485L26.0748 15.4921C26.2202 15.7424 26.2928 16.0493 26.2928 16.3319C26.2928 17.0667 25.7437 17.5835 24.9685 17.5835C24.266 17.5835 23.8946 17.2928 23.4585 16.4369L22.005 13.6026H20.4223V16.1623ZM20.4223 11.713H22.1585C23.2163 11.713 23.8623 11.1558 23.8623 10.1545C23.8623 9.1694 23.2243 8.61223 22.1585 8.61223H20.4223V11.713Z" fill="white"/>
<path d="M6.86475 15.9928V8.02275C6.86475 7.02953 7.41384 6.49658 8.42322 6.49658H11.1929C14.4391 6.49658 16.1752 8.41843 16.1752 12.0037C16.1752 15.5971 14.4391 17.5189 11.1929 17.5189H8.42322C7.41384 17.5189 6.86475 16.986 6.86475 15.9928ZM9.53757 15.3952H10.7811C12.6141 15.3952 13.4459 14.3455 13.4459 12.0037C13.4459 9.67005 12.6141 8.61223 10.7811 8.61223H9.53757V15.3952Z" fill="white"/>
<path d="M40.6171 33.5921C39.7605 33.5921 39.2676 33.0668 39.2676 32.1537V23.8385C39.2676 22.9173 39.7443 22.4001 40.6009 22.4001C41.4575 22.4001 41.9423 22.9254 41.9423 23.8385V32.1537C41.9423 33.0749 41.4656 33.5921 40.6171 33.5921Z" fill="white"/>
<path d="M29.2634 33.6001C28.5362 33.6001 28.0352 33.1476 28.0352 32.5012C28.0352 32.2345 28.1079 31.9274 28.2937 31.386L30.7341 24.2345C31.1705 22.9254 31.8008 22.4001 32.9644 22.4001C34.1281 22.4001 34.7422 22.9173 35.1867 24.2345L37.619 31.386C37.7645 31.8385 37.8372 32.1618 37.8372 32.4446C37.8372 33.1476 37.3362 33.6001 36.5685 33.6001C35.8574 33.6001 35.4453 33.2123 35.1786 32.2991L34.7584 30.982H31.0493L30.621 32.2991C30.3543 33.2365 29.9746 33.6001 29.2634 33.6001ZM31.5988 29.0507H34.217L32.9806 24.8729H32.8513L31.5988 29.0507Z" fill="white"/>
<path d="M25.2802 33.5921C24.4236 33.5921 23.9469 33.0749 23.9469 32.1537V28.986H19.8984V32.1537C19.8984 33.0668 19.4135 33.5921 18.557 33.5921C17.7004 33.5921 17.2236 33.0749 17.2236 32.1537V23.8385C17.2236 22.9173 17.7004 22.4001 18.557 22.4001C19.4135 22.4001 19.8984 22.9254 19.8984 23.8385V26.8608H23.9469V23.8385C23.9469 22.9173 24.4236 22.4001 25.2802 22.4001C26.1368 22.4001 26.6216 22.9254 26.6216 23.8385V32.1537C26.6216 33.0668 26.1368 33.5921 25.2802 33.5921Z" fill="white"/>
<path d="M6.86426 31.9842V24.0085C6.86426 23.0226 7.40567 22.4812 8.41577 22.4812H11.7531C13.838 22.4812 15.1471 23.5236 15.1471 25.1883C15.1471 26.4489 14.3875 27.3701 13.1754 27.5964V27.7176C14.6542 27.8145 15.6723 28.8974 15.6723 30.3842C15.6723 32.259 14.137 33.5115 11.834 33.5115H8.41577C7.40567 33.5115 6.86426 32.9782 6.86426 31.9842ZM9.50668 26.966H10.7915C12.0117 26.966 12.537 26.4327 12.537 25.6489C12.537 24.8731 12.0037 24.3721 11.0744 24.3721H9.50668V26.966ZM9.50668 31.6206H10.937C12.3673 31.6206 12.9572 31.063 12.9572 30.166C12.9572 29.2691 12.3673 28.6792 11.2037 28.6792H9.50668V31.6206Z" fill="white"/>
</svg>
