<svg width="160" height="50" viewBox="0 0 160 50" fill="none" xmlns="http://www.w3.org/2000/svg">
<rect width="50" height="50" rx="9.43396" fill="#364152"/>
<path d="M15.668 25.9385H19.668M11.668 20.5218L14.3346 21.876L16.0288 16.714C16.3785 15.6485 16.5534 15.1158 16.8777 14.7219C17.1641 14.3741 17.5319 14.1049 17.9473 13.9389C18.4178 13.751 18.9707 13.751 20.0765 13.751H29.9261C31.0319 13.751 31.5848 13.751 32.0553 13.9389C32.4707 14.1049 32.8385 14.3741 33.1249 14.7219C33.4492 15.1158 33.6241 15.6485 33.9738 16.714L35.668 21.876L38.3346 20.5218M30.3346 25.9385H34.3346M18.068 21.876H31.9346C34.1748 21.876 35.295 21.876 36.1506 22.3188C36.9032 22.7082 37.5152 23.3297 37.8987 24.0941C38.3346 24.9632 38.3346 26.1008 38.3346 28.376V32.0322C38.3346 32.6614 38.3346 32.9761 38.2834 33.2377C38.073 34.312 37.2461 35.1519 36.1882 35.3656C35.9306 35.4176 35.6208 35.4176 35.0013 35.4176H34.3346C32.8619 35.4176 31.668 34.2051 31.668 32.7093C31.668 32.3354 31.3695 32.0322 31.0013 32.0322H19.0013C18.6331 32.0322 18.3346 32.3354 18.3346 32.7093C18.3346 34.2051 17.1407 35.4176 15.668 35.4176H15.0013C14.3818 35.4176 14.072 35.4176 13.8144 35.3656C12.7566 35.1519 11.9296 34.312 11.7192 33.2377C11.668 32.9761 11.668 32.6614 11.668 32.0322V28.376C11.668 26.1008 11.668 24.9632 12.1039 24.0941C12.4874 23.3297 13.0994 22.7082 13.852 22.3188C14.7077 21.876 15.8278 21.876 18.068 21.876Z" stroke="#FAC515" stroke-width="2.5" stroke-linecap="round" stroke-linejoin="round"/>
<path d="M143.884 21.4211C143.884 23.3358 142.76 24.4107 140.726 24.4107C138.653 24.4107 137.472 23.319 137.472 21.4211V5.33081C137.472 2.60992 138.886 1.31665 141.927 1.31665H148.921C154.849 1.31665 158.491 4.02075 158.491 8.42121C158.491 11.3101 156.863 13.5775 153.996 14.7364L157.444 20.027C157.793 20.5477 157.968 21.1859 157.968 21.7738C157.968 23.3022 156.65 24.3771 154.79 24.3771C153.105 24.3771 152.214 23.7724 151.168 21.9921L147.681 16.0968H143.884V21.4211ZM143.884 12.1666H148.049C150.587 12.1666 152.136 11.0077 152.136 8.92508C152.136 6.87601 150.606 5.71711 148.049 5.71711H143.884V12.1666Z" fill="white"/>
<path d="M114.359 24.4299C112.615 24.4299 111.414 23.4894 111.414 22.1457C111.414 21.5914 111.588 20.9532 112.034 19.8279L117.884 4.96374C118.93 2.24284 120.442 1.15112 123.231 1.15112C126.021 1.15112 127.493 2.22605 128.558 4.96374L134.39 19.8279C134.738 20.7685 134.913 21.4403 134.913 22.0281C134.913 23.4894 133.712 24.4299 131.871 24.4299C130.166 24.4299 129.178 23.6237 128.539 21.7258L127.532 18.9881H118.64L117.613 21.7258C116.974 23.6741 116.063 24.4299 114.359 24.4299ZM119.957 14.974H126.234L123.27 6.2906H122.96L119.957 14.974Z" fill="white"/>
<path d="M84.682 24.4109C82.8417 24.4109 81.873 23.4031 81.873 21.522V4.72635C81.873 2.49253 83.3453 1.13208 85.7087 1.13208C87.7622 1.13208 89.0989 2.02225 90.1256 4.42403L95.2593 15.8787H95.4724L100.587 4.40723C101.633 1.97186 102.892 1.13208 105.042 1.13208C107.444 1.13208 108.82 2.44214 108.82 4.72635V21.522C108.82 23.3527 107.754 24.4109 105.895 24.4109C104.074 24.4109 103.105 23.4031 103.105 21.522V9.98339H102.931L98.3201 20.1952C97.5646 21.9083 96.6734 22.4458 95.3755 22.4458C94.0582 22.4458 93.1477 21.8747 92.3922 20.1952L87.7622 9.98339H87.6072V21.522C87.6072 23.3527 86.5418 24.4109 84.682 24.4109Z" fill="white"/>
<path d="M58.6047 24.4299C56.8612 24.4299 55.6602 23.4894 55.6602 22.1457C55.6602 21.5914 55.8345 20.9532 56.2801 19.8279L62.1305 4.96374C63.1766 2.24284 64.6876 1.15112 67.4772 1.15112C70.2668 1.15112 71.7391 2.22605 72.8046 4.96374L78.6356 19.8279C78.9843 20.7685 79.1587 21.4403 79.1587 22.0281C79.1587 23.4894 77.9576 24.4299 76.1172 24.4299C74.4125 24.4299 73.4245 23.6237 72.7852 21.7258L71.7779 18.9881H62.886L61.8593 21.7258C61.22 23.6741 60.3095 24.4299 58.6047 24.4299ZM64.2033 14.974H70.4799L67.516 6.2906H67.206L64.2033 14.974Z" fill="white"/>
<rect x="111.361" y="30.0901" width="45.7923" height="18.7776" rx="2.6349" fill="#364152"/>
<path d="M142.069 45.4062C141.237 45.4062 140.799 44.8929 140.799 43.9348V35.3804C140.799 34.2427 141.465 33.5498 142.533 33.5498C143.461 33.5498 144.066 34.0032 144.53 35.2265L146.85 41.0606H146.947L149.259 35.2179C149.731 33.9775 150.301 33.5498 151.273 33.5498C152.359 33.5498 152.98 34.217 152.98 35.3804V43.9348C152.98 44.8673 152.499 45.4062 151.658 45.4062C150.835 45.4062 150.397 44.8929 150.397 43.9348V38.058H150.318L148.234 43.259C147.892 44.1316 147.49 44.4053 146.903 44.4053C146.307 44.4053 145.896 44.1145 145.554 43.259L143.461 38.058H143.391V43.9348C143.391 44.8673 142.91 45.4062 142.069 45.4062Z" fill="white"/>
<path d="M128.615 40.2087V38.8094C128.615 35.427 130.586 33.3838 133.921 33.3838C137.257 33.3838 139.219 35.4355 139.219 38.8094V40.2087C139.219 43.5567 137.257 45.5742 133.921 45.5742C130.568 45.5742 128.615 43.5482 128.615 40.2087ZM131.528 38.7922V40.2087C131.528 42.1231 132.417 43.2563 133.921 43.2563C135.418 43.2563 136.306 42.1231 136.306 40.2087V38.7922C136.306 36.852 135.409 35.7017 133.921 35.7017C132.417 35.7017 131.528 36.852 131.528 38.7922Z" fill="white"/>
<path d="M117.583 40.0456V38.775C117.583 35.4012 119.474 33.3838 122.75 33.3838C124.3 33.3838 125.677 33.8474 126.531 34.6629C127.106 35.2123 127.454 35.882 127.454 36.4142C127.454 37.101 126.975 37.556 126.278 37.556C125.816 37.556 125.477 37.3843 125.023 36.9293C124.37 36.1395 123.76 35.7789 122.924 35.7789C121.356 35.7789 120.467 36.9207 120.467 38.9038V39.9168C120.467 42.0286 121.338 43.1704 122.924 43.1704C123.769 43.1704 124.449 42.8099 125.067 42.0372C125.529 41.5651 125.842 41.402 126.287 41.402C126.992 41.402 127.472 41.8655 127.472 42.5437C127.472 43.2219 127.001 43.9774 126.243 44.5354C125.389 45.1878 124.187 45.5742 122.75 45.5742C119.422 45.5742 117.583 43.5653 117.583 40.0456Z" fill="white"/>
<path d="M114.655 44.9986C114.655 44.2203 115.299 43.5835 116.07 43.5835C116.848 43.5835 117.485 44.2203 117.485 44.9986C117.485 45.7769 116.848 46.4137 116.07 46.4137C115.299 46.4137 114.655 45.7769 114.655 44.9986Z" fill="white"/>
<path d="M96.9877 46.4327C95.6176 46.4327 94.8477 45.7265 94.8477 44.4687V33.7551C94.8477 31.9566 95.6306 31.2615 97.6663 31.2615H102.247C106.148 31.2615 108.615 33.2696 108.615 36.37C108.615 39.6691 106.109 41.5117 102.025 41.5117H99.1539V44.4687C99.1539 45.7155 98.3709 46.4327 96.9877 46.4327ZM99.1669 38.7974H101.124C103.356 38.7974 104.347 38.1795 104.347 36.4362C104.347 34.9357 103.369 34.075 101.607 34.075H99.1669V38.7974Z" fill="white"/>
<path d="M89.7818 46.4331C88.3985 46.4331 87.6025 45.7159 87.6025 44.4691V33.1156C87.6025 31.8578 88.3724 31.1516 89.7557 31.1516C91.1389 31.1516 91.9218 31.8688 91.9218 33.1156V44.4691C91.9218 45.727 91.1519 46.4331 89.7818 46.4331Z" fill="white"/>
<path d="M75.5742 44.4687C75.5742 45.7265 74.8173 46.4327 73.4472 46.4327C72.0509 46.4327 71.2549 45.7155 71.2549 44.4687V33.8985C71.2549 32.1111 72.2075 31.2615 74.2562 31.2615H78.967C82.96 31.2615 85.4133 33.0379 85.4133 35.9287C85.4133 37.8265 84.3172 39.316 82.3859 40.0773L84.7086 43.5529C84.9435 43.8949 85.061 44.3142 85.061 44.7004C85.061 45.7044 84.1736 46.4106 82.9209 46.4106C81.7856 46.4106 81.1853 46.0134 80.4807 44.8438L78.1318 40.971H75.5742V44.4687ZM75.5742 38.3892H78.3798C80.0892 38.3892 81.1331 37.6279 81.1331 36.2597C81.1331 34.9136 80.1023 34.1523 78.3798 34.1523H75.5742V38.3892Z" fill="white"/>
<path d="M62.9286 46.4327C61.5845 46.4327 60.7755 45.7044 60.7755 44.5128V34.2516H57.3957C56.404 34.2516 55.6602 33.6116 55.6602 32.762C55.6602 31.9014 56.404 31.2615 57.3957 31.2615H68.5006C69.4923 31.2615 70.2231 31.9014 70.2231 32.762C70.2231 33.6116 69.4923 34.2516 68.5006 34.2516H65.0947V44.5128C65.0947 45.7044 64.2726 46.4327 62.9286 46.4327Z" fill="white"/>
</svg>
