<svg width="267" height="52" viewBox="0 0 267 52" fill="none" xmlns="http://www.w3.org/2000/svg">
<rect y="1" width="50" height="50" rx="9.43396" fill="#FAC515"/>
<path d="M15.6689 26.938H19.6689M11.6689 21.5213L14.3356 22.8755L16.0298 17.7135C16.3795 16.648 16.5543 16.1153 16.8787 15.7214C17.1651 15.3736 17.5328 15.1044 17.9483 14.9384C18.4188 14.7505 18.9717 14.7505 20.0775 14.7505H29.927C31.0329 14.7505 31.5858 14.7505 32.0563 14.9384C32.4717 15.1044 32.8395 15.3736 33.1259 15.7214C33.4502 16.1153 33.6251 16.648 33.9748 17.7135L35.6689 22.8755L38.3356 21.5213M30.3356 26.938H34.3356M18.0689 22.8755H31.9356C34.1758 22.8755 35.2959 22.8755 36.1516 23.3183C36.9042 23.7078 37.5161 24.3292 37.8996 25.0937C38.3356 25.9627 38.3356 27.1003 38.3356 29.3755V33.0317C38.3356 33.661 38.3356 33.9756 38.2844 34.2372C38.074 35.3116 37.247 36.1514 36.1892 36.3651C35.9316 36.4172 35.6218 36.4172 35.0023 36.4172H34.3356C32.8629 36.4172 31.6689 35.2046 31.6689 33.7088C31.6689 33.3349 31.3705 33.0317 31.0023 33.0317H19.0023C18.6341 33.0317 18.3356 33.3349 18.3356 33.7088C18.3356 35.2046 17.1417 36.4172 15.6689 36.4172H15.0023C14.3827 36.4172 14.073 36.4172 13.8154 36.3651C12.7575 36.1514 11.9306 35.3116 11.7202 34.2372C11.6689 33.9756 11.6689 33.661 11.6689 33.0317V29.3755C11.6689 27.1003 11.6689 25.9627 12.1049 25.0937C12.4884 24.3292 13.1003 23.7078 13.853 23.3183C14.7086 22.8755 15.8287 22.8755 18.0689 22.8755Z" stroke="#364152" stroke-width="2.5" stroke-linecap="round" stroke-linejoin="round"/>
<path d="M146.223 22.4208C146.223 24.3355 145.099 25.4104 143.065 25.4104C140.992 25.4104 139.811 24.3187 139.811 22.4208V6.33057C139.811 3.60967 141.225 2.31641 144.266 2.31641H151.26C157.187 2.31641 160.829 5.02051 160.829 9.42097C160.829 12.3098 159.202 14.5772 156.335 15.7361L159.783 21.0268C160.132 21.5474 160.306 22.1857 160.306 22.7735C160.306 24.3019 158.989 25.3768 157.129 25.3768C155.444 25.3768 154.553 24.7722 153.507 22.9919L150.02 17.0966H146.223V22.4208ZM146.223 13.1664H150.388C152.926 13.1664 154.475 12.0075 154.475 9.92484C154.475 7.87577 152.945 6.71687 150.388 6.71687H146.223V13.1664Z" fill="white"/>
<path d="M116.699 25.4297C114.955 25.4297 113.754 24.4891 113.754 23.1455C113.754 22.5912 113.929 21.953 114.374 20.8277L120.225 5.96349C121.271 3.2426 122.782 2.15088 125.571 2.15088C128.361 2.15088 129.833 3.2258 130.899 5.96349L136.73 20.8277C137.079 21.7682 137.253 22.44 137.253 23.0279C137.253 24.4891 136.052 25.4297 134.211 25.4297C132.507 25.4297 131.519 24.6235 130.879 22.7256L129.872 19.9879H120.98L119.954 22.7256C119.314 24.6739 118.404 25.4297 116.699 25.4297ZM122.298 15.9737H128.574L125.61 7.29035H125.3L122.298 15.9737Z" fill="white"/>
<path d="M87.0219 25.4106C85.1815 25.4106 84.2129 24.4029 84.2129 22.5218V5.72611C84.2129 3.49228 85.6852 2.13184 88.0486 2.13184C90.1021 2.13184 91.4387 3.02201 92.4655 5.42378L97.5991 16.8784H97.8122L102.926 5.40699C103.973 2.97162 105.232 2.13184 107.382 2.13184C109.784 2.13184 111.16 3.4419 111.16 5.72611V22.5218C111.16 24.3525 110.094 25.4106 108.234 25.4106C106.413 25.4106 105.445 24.4029 105.445 22.5218V10.9831H105.271L100.66 21.1949C99.9044 22.9081 99.0133 23.4455 97.7153 23.4455C96.398 23.4455 95.4875 22.8745 94.732 21.1949L90.1021 10.9831H89.9471V22.5218C89.9471 24.3525 88.8816 25.4106 87.0219 25.4106Z" fill="white"/>
<path d="M60.9446 25.4292C59.2011 25.4292 58 24.4886 58 23.145C58 22.5907 58.1744 21.9525 58.6199 20.8272L64.4703 5.96301C65.5164 3.24211 67.0275 2.15039 69.8171 2.15039C72.6067 2.15039 74.079 3.22531 75.1444 5.96301L80.9755 20.8272C81.3242 21.7677 81.4985 22.4396 81.4985 23.0274C81.4985 24.4886 80.2974 25.4292 78.4571 25.4292C76.7523 25.4292 75.7643 24.623 75.1251 22.7251L74.1177 19.9874H65.2258L64.1991 22.7251C63.5598 24.6734 62.6493 25.4292 60.9446 25.4292ZM66.5432 15.9732H72.8198L69.8558 7.28986H69.5459L66.5432 15.9732Z" fill="white"/>
<rect x="113.7" y="31.0898" width="45.7923" height="18.7776" rx="2.6349" fill="white"/>
<path d="M144.409 46.4069C143.577 46.4069 143.139 45.8937 143.139 44.9356V36.3812C143.139 35.2434 143.805 34.5505 144.873 34.5505C145.801 34.5505 146.406 35.0039 146.87 36.2272L149.19 42.0613H149.287L151.598 36.2186C152.071 34.9783 152.64 34.5505 153.612 34.5505C154.698 34.5505 155.32 35.2178 155.32 36.3812V44.9356C155.32 45.868 154.838 46.4069 153.998 46.4069C153.175 46.4069 152.737 45.8937 152.737 44.9356V39.0587H152.658L150.574 44.2598C150.232 45.1323 149.829 45.4061 149.243 45.4061C148.647 45.4061 148.236 45.1152 147.894 44.2598L145.801 39.0587H145.731V44.9356C145.731 45.868 145.25 46.4069 144.409 46.4069Z" fill="#364152"/>
<path d="M130.955 41.2084V39.8091C130.955 36.4267 132.926 34.3835 136.262 34.3835C139.597 34.3835 141.56 36.4353 141.56 39.8091V41.2084C141.56 44.5565 139.597 46.5739 136.262 46.5739C132.909 46.5739 130.955 44.5479 130.955 41.2084ZM133.868 39.7919V41.2084C133.868 43.1228 134.757 44.256 136.262 44.256C137.758 44.256 138.647 43.1228 138.647 41.2084V39.7919C138.647 37.8518 137.749 36.7014 136.262 36.7014C134.757 36.7014 133.868 37.8518 133.868 39.7919Z" fill="#364152"/>
<path d="M119.923 41.0453V39.7748C119.923 36.401 121.813 34.3835 125.089 34.3835C126.64 34.3835 128.016 34.8471 128.87 35.6627C129.445 36.2121 129.793 36.8817 129.793 37.414C129.793 38.1007 129.314 38.5557 128.617 38.5557C128.156 38.5557 127.816 38.384 127.363 37.9291C126.709 37.1393 126.1 36.7787 125.263 36.7787C123.695 36.7787 122.807 37.9205 122.807 39.9035V40.9166C122.807 43.0284 123.678 44.1702 125.263 44.1702C126.108 44.1702 126.788 43.8096 127.406 43.037C127.868 42.5648 128.182 42.4017 128.626 42.4017C129.332 42.4017 129.811 42.8653 129.811 43.5435C129.811 44.2217 129.34 44.9771 128.583 45.5352C127.729 46.1876 126.527 46.5739 125.089 46.5739C121.761 46.5739 119.923 44.5651 119.923 41.0453Z" fill="#364152"/>
<path d="M116.994 45.9988C116.994 45.2205 117.639 44.5837 118.409 44.5837C119.188 44.5837 119.824 45.2205 119.824 45.9988C119.824 46.7771 119.188 47.4139 118.409 47.4139C117.639 47.4139 116.994 46.7771 116.994 45.9988Z" fill="#364152"/>
<path d="M99.3285 47.4324C97.9584 47.4324 97.1885 46.7263 97.1885 45.4684V34.7548C97.1885 32.9563 97.9714 32.2612 100.007 32.2612H104.587C108.489 32.2612 110.955 34.2693 110.955 37.3698C110.955 40.6688 108.45 42.5114 104.366 42.5114H101.495V45.4684C101.495 46.7152 100.712 47.4324 99.3285 47.4324ZM101.508 39.7972H103.465C105.697 39.7972 106.688 39.1793 106.688 37.436C106.688 35.9354 105.71 35.0748 103.948 35.0748H101.508V39.7972Z" fill="white"/>
<path d="M92.1221 47.4331C90.7389 47.4331 89.9429 46.7159 89.9429 45.4691V34.1156C89.9429 32.8578 90.7128 32.1516 92.096 32.1516C93.4792 32.1516 94.2622 32.8688 94.2622 34.1156V45.4691C94.2622 46.727 93.4923 47.4331 92.1221 47.4331Z" fill="white"/>
<path d="M77.9135 45.4684C77.9135 46.7263 77.1567 47.4324 75.7865 47.4324C74.3902 47.4324 73.5942 46.7152 73.5942 45.4684V34.8983C73.5942 33.1108 74.5468 32.2612 76.5956 32.2612H81.3063C85.2994 32.2612 87.7526 34.0376 87.7526 36.9284C87.7526 38.8262 86.6565 40.3157 84.7252 41.0771L87.048 44.5526C87.2829 44.8947 87.4003 45.314 87.4003 45.7001C87.4003 46.7042 86.513 47.4103 85.2602 47.4103C84.125 47.4103 83.5247 47.0131 82.82 45.8436L80.4712 41.9708H77.9135V45.4684ZM77.9135 39.3889H80.7191C82.4286 39.3889 83.4725 38.6276 83.4725 37.2594C83.4725 35.9133 82.4416 35.152 80.7191 35.152H77.9135V39.3889Z" fill="white"/>
<path d="M65.2684 47.4324C63.9243 47.4324 63.1153 46.7042 63.1153 45.5126V35.2513H59.7355C58.7438 35.2513 58 34.6114 58 33.7618C58 32.9012 58.7438 32.2612 59.7355 32.2612H70.8404C71.8322 32.2612 72.5629 32.9012 72.5629 33.7618C72.5629 34.6114 71.8322 35.2513 70.8404 35.2513H67.4346V45.5126C67.4346 46.7042 66.6125 47.4324 65.2684 47.4324Z" fill="white"/>
<path d="M168.83 1V51" stroke="#364152" stroke-width="2" stroke-linecap="round"/>
<rect x="176.83" y="1" width="84.2235" height="50" rx="4" fill="#16B364"/>
<path d="M245.442 21.203C245.442 22.3537 244.857 22.9997 243.797 22.9997C242.717 22.9997 242.101 22.3436 242.101 21.203V11.5333C242.101 9.89807 242.838 9.12085 244.423 9.12085H248.066C251.155 9.12085 253.053 10.7459 253.053 13.3905C253.053 15.1266 252.205 16.4893 250.711 17.1857L252.508 20.3653C252.689 20.6782 252.78 21.0617 252.78 21.415C252.78 22.3335 252.094 22.9795 251.125 22.9795C250.247 22.9795 249.782 22.6162 249.237 21.5462L247.42 18.0033H245.442V21.203ZM245.442 15.6414H247.612C248.935 15.6414 249.742 14.9449 249.742 13.6933C249.742 12.4619 248.945 11.7654 247.612 11.7654H245.442V15.6414Z" fill="white"/>
<path d="M230.574 20.9911V11.0286C230.574 9.79713 231.25 9.12085 232.512 9.12085H238.76C239.527 9.12085 240.072 9.66591 240.072 10.4532C240.072 11.2304 239.527 11.7654 238.76 11.7654H233.874V14.7431H238.517C239.234 14.7431 239.719 15.2477 239.719 15.9745C239.719 16.7113 239.234 17.1857 238.517 17.1857H233.874V20.2542H238.719C239.527 20.2542 240.072 20.7791 240.072 21.5765C240.072 22.384 239.527 22.8988 238.709 22.8988H232.512C231.25 22.8988 230.574 22.2326 230.574 20.9911Z" fill="white"/>
<path d="M222.782 19.3256L225.356 10.645C225.679 9.47416 226.174 8.99976 227.062 8.99976C228.021 8.99976 228.697 9.59529 228.697 10.4734C228.697 10.8065 228.586 11.3213 228.435 11.7957L225.457 20.6479C224.922 22.3033 224.115 22.9998 222.671 22.9998C221.208 22.9998 220.37 22.2932 219.845 20.6479L216.867 11.7957C216.696 11.291 216.605 10.8267 216.605 10.5037C216.605 9.61547 217.291 8.99976 218.25 8.99976C219.108 8.99976 219.663 9.53472 219.996 10.645L222.631 19.3256H222.782Z" fill="white"/>
<path d="M213.182 23.0001C212.112 23.0001 211.497 22.344 211.497 21.2034V10.8169C211.497 9.66626 212.092 9.02026 213.162 9.02026C214.232 9.02026 214.838 9.67636 214.838 10.8169V21.2034C214.838 22.3541 214.242 23.0001 213.182 23.0001Z" fill="white"/>
<path d="M201.777 21.203C201.777 22.3537 201.191 22.9997 200.131 22.9997C199.051 22.9997 198.436 22.3436 198.436 21.203V11.5333C198.436 9.89807 199.172 9.12085 200.757 9.12085H204.401C207.49 9.12085 209.387 10.7459 209.387 13.3905C209.387 15.1266 208.539 16.4893 207.045 17.1857L208.842 20.3653C209.024 20.6782 209.115 21.0617 209.115 21.415C209.115 22.3335 208.428 22.9795 207.459 22.9795C206.581 22.9795 206.117 22.6162 205.572 21.5462L203.755 18.0033H201.777V21.203ZM201.777 15.6414H203.947C205.269 15.6414 206.076 14.9449 206.076 13.6933C206.076 12.4619 205.279 11.7654 203.947 11.7654H201.777V15.6414Z" fill="white"/>
<path d="M184.83 20.9911V11.0286C184.83 9.78704 185.516 9.12085 186.778 9.12085H190.24C194.298 9.12085 196.468 11.5232 196.468 16.0048C196.468 20.4965 194.298 22.8988 190.24 22.8988H186.778C185.516 22.8988 184.83 22.2326 184.83 20.9911ZM188.171 20.2441H189.725C192.016 20.2441 193.056 18.932 193.056 16.0048C193.056 13.0877 192.016 11.7654 189.725 11.7654H188.171V20.2441Z" fill="white"/>
<path d="M227.021 42.9899C225.95 42.9899 225.334 42.3333 225.334 41.1919V30.798C225.334 29.6465 225.93 29 227.001 29C228.071 29 228.677 29.6566 228.677 30.798V41.1919C228.677 42.3434 228.081 42.9899 227.021 42.9899Z" fill="white"/>
<path d="M212.829 43C211.92 43 211.293 42.4343 211.293 41.6263C211.293 41.2929 211.384 40.9091 211.617 40.2323L214.667 31.2929C215.213 29.6566 216.001 29 217.455 29C218.91 29 219.677 29.6465 220.233 31.2929L223.273 40.2323C223.455 40.798 223.546 41.202 223.546 41.5556C223.546 42.4343 222.92 43 221.96 43C221.071 43 220.556 42.5152 220.223 41.3737L219.697 39.7273H215.061L214.526 41.3737C214.192 42.5455 213.718 43 212.829 43ZM215.748 37.3131H219.021L217.475 32.0909H217.314L215.748 37.3131Z" fill="white"/>
<path d="M207.85 42.9899C206.779 42.9899 206.183 42.3434 206.183 41.1919V37.2323H201.122V41.1919C201.122 42.3333 200.516 42.9899 199.445 42.9899C198.375 42.9899 197.779 42.3434 197.779 41.1919V30.798C197.779 29.6465 198.375 29 199.445 29C200.516 29 201.122 29.6566 201.122 30.798V34.5758H206.183V30.798C206.183 29.6465 206.779 29 207.85 29C208.92 29 209.526 29.6566 209.526 30.798V41.1919C209.526 42.3333 208.92 42.9899 207.85 42.9899Z" fill="white"/>
<path d="M184.83 40.9799V31.0102C184.83 29.7778 185.506 29.1011 186.769 29.1011H190.941C193.547 29.1011 195.183 30.4041 195.183 32.4849C195.183 34.0607 194.234 35.2122 192.718 35.495V35.6465C194.567 35.7677 195.84 37.1213 195.84 38.9799C195.84 41.3233 193.92 42.889 191.042 42.889H186.769C185.506 42.889 184.83 42.2223 184.83 40.9799ZM188.133 34.7071H189.739C191.264 34.7071 191.92 34.0405 191.92 33.0607C191.92 32.091 191.254 31.4647 190.092 31.4647H188.133V34.7071ZM188.133 40.5253H189.92C191.708 40.5253 192.446 39.8283 192.446 38.7071C192.446 37.5859 191.708 36.8485 190.254 36.8485H188.133V40.5253Z" fill="white"/>
</svg>
