<svg width="158" height="131" viewBox="0 0 158 131" fill="none" xmlns="http://www.w3.org/2000/svg">
<g filter="url(#filter0_d_1129_393)">
<rect x="37.5" y="38.1519" width="50" height="50" rx="9.43" fill="#202939"/>
<path d="M53.167 64.0894H57.167M49.167 58.6727L51.8337 60.0269L53.5278 54.8649C53.8775 53.7994 54.0524 53.2666 54.3767 52.8728C54.6631 52.525 55.0309 52.2557 55.4463 52.0898C55.9168 51.9019 56.4697 51.9019 57.5756 51.9019H67.4251C68.5309 51.9019 69.0838 51.9019 69.5543 52.0898C69.9698 52.2557 70.3376 52.525 70.6239 52.8728C70.9483 53.2666 71.1231 53.7994 71.4728 54.8649L73.167 60.0269L75.8337 58.6727M67.8337 64.0894H71.8337M55.567 60.0269H69.4337C71.6739 60.0269 72.794 60.0269 73.6496 60.4696C74.4023 60.8591 75.0142 61.4806 75.3977 62.245C75.8337 63.114 75.8337 64.2516 75.8337 66.5269V70.1831C75.8337 70.8123 75.8337 71.1269 75.7824 71.3886C75.572 72.4629 74.7451 73.3028 73.6872 73.5165C73.4296 73.5685 73.1199 73.5685 72.5003 73.5685H71.8337C70.3609 73.5685 69.167 72.356 69.167 70.8602C69.167 70.4862 68.8685 70.1831 68.5003 70.1831H56.5003C56.1321 70.1831 55.8337 70.4862 55.8337 70.8602C55.8337 72.356 54.6398 73.5685 53.167 73.5685H52.5003C51.8808 73.5685 51.571 73.5685 51.3134 73.5165C50.2556 73.3028 49.4286 72.4629 49.2182 71.3886C49.167 71.1269 49.167 70.8123 49.167 70.1831V66.5269C49.167 64.2516 49.167 63.114 49.603 62.245C49.9865 61.4806 50.5984 60.8591 51.351 60.4696C52.2067 60.0269 53.3268 60.0269 55.567 60.0269Z" stroke="#FAC515" stroke-width="3.5" stroke-linecap="round" stroke-linejoin="round"/>
</g>
<rect x="107.5" y="38.1519" width="50" height="50" rx="9.43396" fill="#FAC515"/>
<path d="M123.169 64.0898H127.169M119.169 58.6732L121.836 60.0273L123.53 54.8654C123.88 53.7999 124.054 53.2671 124.379 52.8733C124.665 52.5254 125.033 52.2562 125.448 52.0903C125.919 51.9023 126.472 51.9023 127.578 51.9023H137.427C138.533 51.9023 139.086 51.9023 139.556 52.0903C139.972 52.2562 140.34 52.5254 140.626 52.8733C140.95 53.2671 141.125 53.7999 141.475 54.8654L143.169 60.0273L145.836 58.6732M137.836 64.0898H141.836M125.569 60.0273H139.436C141.676 60.0273 142.796 60.0273 143.652 60.4701C144.404 60.8596 145.016 61.4811 145.4 62.2455C145.836 63.1145 145.836 64.2521 145.836 66.5273V70.1836C145.836 70.8128 145.836 71.1274 145.784 71.389C145.574 72.4634 144.747 73.3033 143.689 73.517C143.432 73.569 143.122 73.569 142.502 73.569H141.836C140.363 73.569 139.169 72.3564 139.169 70.8607C139.169 70.4867 138.87 70.1836 138.502 70.1836H126.502C126.134 70.1836 125.836 70.4867 125.836 70.8607C125.836 72.3564 124.642 73.569 123.169 73.569H122.502C121.883 73.569 121.573 73.569 121.315 73.517C120.258 73.3033 119.431 72.4634 119.22 71.389C119.169 71.1274 119.169 70.8128 119.169 70.1836V66.5273C119.169 64.2521 119.169 63.1145 119.605 62.2455C119.988 61.4811 120.6 60.8596 121.353 60.4701C122.209 60.0273 123.329 60.0273 125.569 60.0273Z" stroke="#364152" stroke-width="2.5" stroke-linecap="round" stroke-linejoin="round"/>
<defs>
<filter id="filter0_d_1129_393" x="0.5" y="0.151855" width="130" height="130" filterUnits="userSpaceOnUse" color-interpolation-filters="sRGB">
<feFlood flood-opacity="0" result="BackgroundImageFix"/>
<feColorMatrix in="SourceAlpha" type="matrix" values="0 0 0 0 0 0 0 0 0 0 0 0 0 0 0 0 0 0 127 0" result="hardAlpha"/>
<feMorphology radius="5" operator="dilate" in="SourceAlpha" result="effect1_dropShadow_1129_393"/>
<feOffset dx="3" dy="2"/>
<feGaussianBlur stdDeviation="17.5"/>
<feComposite in2="hardAlpha" operator="out"/>
<feColorMatrix type="matrix" values="0 0 0 0 1 0 0 0 0 1 0 0 0 0 1 0 0 0 0.1 0"/>
<feBlend mode="normal" in2="BackgroundImageFix" result="effect1_dropShadow_1129_393"/>
<feBlend mode="normal" in="SourceGraphic" in2="effect1_dropShadow_1129_393" result="shape"/>
</filter>
</defs>
</svg>
