<svg width="149" height="45" viewBox="0 0 149 45" fill="none" xmlns="http://www.w3.org/2000/svg">
<rect x="0.55" y="0.927686" width="147.4" height="42.9" rx="11.2475" fill="#202939"/>
<rect x="0.55" y="0.927686" width="147.4" height="42.9" rx="11.2475" stroke="#DCDFEA" stroke-width="1.1"/>
<path d="M74.9078 24.074C72.7455 24.074 70.9831 25.7187 70.9831 27.9839C70.9831 30.2354 72.7455 31.8938 74.9078 31.8938C77.0709 31.8938 78.8333 30.2354 78.8333 27.9839C78.8324 25.7187 77.07 24.074 74.9078 24.074ZM74.9078 30.3549C73.7227 30.3549 72.7014 29.3776 72.7014 27.9849C72.7014 26.5774 73.7237 25.6148 74.9078 25.6148C76.0928 25.6148 77.1141 26.5774 77.1141 27.9849C77.1141 29.3767 76.0928 30.3549 74.9078 30.3549ZM66.3451 24.074C64.1829 24.074 62.4205 25.7187 62.4205 27.9839C62.4205 30.2354 64.1829 31.8938 66.3451 31.8938C68.5083 31.8938 70.2707 30.2354 70.2707 27.9839C70.2707 25.7187 68.5083 24.074 66.3451 24.074ZM66.3451 30.3549C65.1601 30.3549 64.1388 29.3776 64.1388 27.9849C64.1388 26.5774 65.1611 25.6148 66.3451 25.6148C67.5302 25.6148 68.5515 26.5774 68.5515 27.9849C68.5525 29.3767 67.5302 30.3549 66.3451 30.3549ZM56.1608 25.2747V26.9331H60.1305C60.0119 27.8663 59.7012 28.5475 59.2268 29.0209C58.6495 29.5983 57.7458 30.2354 56.1608 30.2354C53.7173 30.2354 51.8069 28.2652 51.8069 25.8217C51.8069 23.3781 53.7173 21.408 56.1608 21.408C57.4792 21.408 58.4417 21.9265 59.1523 22.593L60.3226 21.4227C59.3298 20.4749 58.0124 19.7495 56.1608 19.7495C52.8136 19.7495 49.9995 22.4744 49.9995 25.8217C49.9995 29.1689 52.8136 31.8938 56.1608 31.8938C57.9673 31.8938 59.3307 31.3009 60.3962 30.1903C61.492 29.0945 61.8331 27.5537 61.8331 26.3098C61.8331 25.9256 61.8037 25.5698 61.7439 25.2738H56.1608V25.2747ZM97.8137 26.5627C97.4883 25.6893 96.4954 24.074 94.4664 24.074C92.4522 24.074 90.7781 25.659 90.7781 27.9839C90.7781 30.1756 92.4375 31.8938 94.6586 31.8938C96.4504 31.8938 97.4874 30.798 97.9176 30.1609L96.5846 29.2719C96.1405 29.9237 95.5329 30.353 94.6586 30.353C93.7852 30.353 93.1628 29.9531 92.7629 29.168L97.9911 27.0058L97.8137 26.5627ZM92.4816 27.8663C92.4375 26.3549 93.6519 25.5854 94.5262 25.5854C95.2074 25.5854 95.7848 25.9265 95.9778 26.4146L92.4816 27.8663ZM88.2316 31.6576H89.9489V20.165H88.2316V31.6576ZM85.4166 24.9483H85.3577C84.9725 24.4886 84.2316 24.074 83.2994 24.074C81.344 24.074 79.5522 25.7923 79.5522 27.9996C79.5522 30.1912 81.344 31.8948 83.2994 31.8948C84.2325 31.8948 84.9725 31.4801 85.3577 31.0067H85.4166V31.5693C85.4166 33.0651 84.6168 33.8649 83.3288 33.8649C82.2771 33.8649 81.6253 33.1101 81.3587 32.473L79.8629 33.0954C80.2923 34.1315 81.4322 35.4057 83.3288 35.4057C85.343 35.4057 87.0465 34.2207 87.0465 31.3321V24.3121H85.4175V24.9483H85.4166ZM83.4474 30.3549C82.2624 30.3549 81.2704 29.362 81.2704 27.9996C81.2704 26.6215 82.2624 25.6148 83.4474 25.6148C84.6168 25.6148 85.5352 26.6215 85.5352 27.9996C85.5352 29.362 84.6168 30.3549 83.4474 30.3549ZM105.861 20.165H101.751V31.6576H103.466V27.3036H105.861C107.762 27.3036 109.632 25.9274 109.632 23.7348C109.632 21.5422 107.763 20.165 105.861 20.165ZM105.906 25.704H103.466V21.7647H105.906C107.188 21.7647 107.916 22.8265 107.916 23.7348C107.916 24.6247 107.188 25.704 105.906 25.704ZM116.507 24.0538C115.265 24.0538 113.979 24.6008 113.447 25.8134L114.969 26.4487C115.295 25.8134 115.901 25.6056 116.537 25.6056C117.424 25.6056 118.326 26.1379 118.34 27.0839V27.2025C118.03 27.0251 117.364 26.7594 116.551 26.7594C114.91 26.7594 113.239 27.6612 113.239 29.3464C113.239 30.8844 114.585 31.8745 116.093 31.8745C117.246 31.8745 117.882 31.3569 118.281 30.7502H118.34V31.6373H119.996V27.231C119.997 25.1919 118.473 24.0538 116.507 24.0538ZM116.3 30.3521C115.739 30.3521 114.955 30.0708 114.955 29.3758C114.955 28.4886 115.931 28.1485 116.774 28.1485C117.527 28.1485 117.883 28.3112 118.34 28.5328C118.207 29.5983 117.291 30.3521 116.3 30.3521ZM126.029 24.3048L124.062 29.2875H124.003L121.963 24.3048H120.115L123.175 31.2687L121.43 35.1427H123.219L127.936 24.3048H126.029ZM110.579 31.6576H112.293V20.165H110.579V31.6576Z" fill="white"/>
<path d="M55.8589 13.4966C55.8589 14.267 55.6309 14.8802 55.174 15.338C54.6555 15.8822 53.9788 16.1543 53.1478 16.1543C52.3516 16.1543 51.6741 15.8785 51.1179 15.3269C50.5608 14.7744 50.2822 14.0904 50.2822 13.2741C50.2822 12.4568 50.5608 11.7728 51.1179 11.2212C51.6741 10.6687 52.3516 10.3929 53.1478 10.3929C53.5431 10.3929 53.9209 10.4701 54.2795 10.6237C54.6389 10.7781 54.9267 10.9831 55.1418 11.2396L54.6573 11.725C54.2923 11.2883 53.7895 11.0705 53.1468 11.0705C52.5658 11.0705 52.0639 11.2745 51.6401 11.6827C51.2163 12.0909 51.0048 12.6214 51.0048 13.2732C51.0048 13.925 51.2163 14.4554 51.6401 14.8636C52.0639 15.2718 52.5658 15.4759 53.1468 15.4759C53.7628 15.4759 54.2767 15.2709 54.6876 14.8599C54.9542 14.5924 55.1087 14.2201 55.1501 13.7429H53.1468V13.0801H55.8193C55.8469 13.2244 55.8589 13.3633 55.8589 13.4966Z" fill="white"/>
<path d="M60.097 11.1928H57.5854V12.9413H59.8507V13.6042H57.5854V15.3527H60.097V16.0312H56.8766V10.5152H60.097V11.1928Z" fill="white"/>
<path d="M63.0857 16.0312H62.3769V11.1928H60.8361V10.5152H64.6265V11.1928H63.0857V16.0312Z" fill="white"/>
<path d="M67.3688 16.0312V10.5152H68.0776V16.0312H67.3688Z" fill="white"/>
<path d="M71.2209 16.0312H70.5121V11.1928H68.9713V10.5152H72.7617V11.1928H71.2209V16.0312Z" fill="white"/>
<path d="M79.9368 15.3187C79.3944 15.8758 78.7206 16.1544 77.9143 16.1544C77.1081 16.1544 76.4342 15.8758 75.8927 15.3187C75.3503 14.7616 75.08 14.0795 75.08 13.2732C75.08 12.467 75.3503 11.7848 75.8927 11.2277C76.4342 10.6706 77.1081 10.3911 77.9143 10.3911C78.716 10.3911 79.3889 10.6715 79.9332 11.2314C80.4774 11.7912 80.7495 12.4716 80.7495 13.2732C80.7495 14.0795 80.4783 14.7616 79.9368 15.3187ZM76.4158 14.8563C76.824 15.27 77.3232 15.4759 77.9143 15.4759C78.5054 15.4759 79.0055 15.2691 79.4128 14.8563C79.821 14.4426 80.026 13.9149 80.026 13.2732C80.026 12.6315 79.821 12.1038 79.4128 11.6901C79.0055 11.2764 78.5054 11.0705 77.9143 11.0705C77.3232 11.0705 76.824 11.2773 76.4158 11.6901C76.0085 12.1038 75.8035 12.6315 75.8035 13.2732C75.8035 13.9149 76.0085 14.4426 76.4158 14.8563Z" fill="white"/>
<path d="M81.7442 16.0312V10.5152H82.6066L85.2873 14.8057H85.3177L85.2873 13.743V10.5152H85.9961V16.0312H85.2561L82.4512 11.532H82.4209L82.4512 12.5948V16.0312H81.7442Z" fill="white"/>
<path d="M55.8589 13.4966C55.8589 14.267 55.6309 14.8802 55.174 15.338C54.6555 15.8822 53.9788 16.1543 53.1478 16.1543C52.3516 16.1543 51.6741 15.8785 51.1179 15.3269C50.5608 14.7744 50.2822 14.0904 50.2822 13.2741C50.2822 12.4568 50.5608 11.7728 51.1179 11.2212C51.6741 10.6687 52.3516 10.3929 53.1478 10.3929C53.5431 10.3929 53.9209 10.4701 54.2795 10.6237C54.6389 10.7781 54.9267 10.9831 55.1418 11.2396L54.6573 11.725C54.2923 11.2883 53.7895 11.0705 53.1468 11.0705C52.5658 11.0705 52.0639 11.2745 51.6401 11.6827C51.2163 12.0909 51.0048 12.6214 51.0048 13.2732C51.0048 13.925 51.2163 14.4554 51.6401 14.8636C52.0639 15.2718 52.5658 15.4759 53.1468 15.4759C53.7628 15.4759 54.2767 15.2709 54.6876 14.8599C54.9542 14.5924 55.1087 14.2201 55.1501 13.7429H53.1468V13.0801H55.8193C55.8469 13.2244 55.8589 13.3633 55.8589 13.4966Z" stroke="#202939" stroke-width="0.183866" stroke-miterlimit="10"/>
<path d="M60.097 11.1928H57.5854V12.9413H59.8507V13.6042H57.5854V15.3527H60.097V16.0312H56.8766V10.5152H60.097V11.1928Z" stroke="#202939" stroke-width="0.183866" stroke-miterlimit="10"/>
<path d="M63.0857 16.0312H62.3769V11.1928H60.8361V10.5152H64.6265V11.1928H63.0857V16.0312Z" stroke="#202939" stroke-width="0.183866" stroke-miterlimit="10"/>
<path d="M67.3688 16.0312V10.5152H68.0776V16.0312H67.3688Z" stroke="#202939" stroke-width="0.183866" stroke-miterlimit="10"/>
<path d="M71.2209 16.0312H70.5121V11.1928H68.9713V10.5152H72.7617V11.1928H71.2209V16.0312Z" stroke="#202939" stroke-width="0.183866" stroke-miterlimit="10"/>
<path d="M79.9368 15.3187C79.3944 15.8758 78.7206 16.1544 77.9143 16.1544C77.1081 16.1544 76.4342 15.8758 75.8927 15.3187C75.3503 14.7616 75.08 14.0795 75.08 13.2732C75.08 12.467 75.3503 11.7848 75.8927 11.2277C76.4342 10.6706 77.1081 10.3911 77.9143 10.3911C78.716 10.3911 79.3889 10.6715 79.9332 11.2314C80.4774 11.7912 80.7495 12.4716 80.7495 13.2732C80.7495 14.0795 80.4783 14.7616 79.9368 15.3187ZM76.4158 14.8563C76.824 15.27 77.3232 15.4759 77.9143 15.4759C78.5054 15.4759 79.0055 15.2691 79.4128 14.8563C79.821 14.4426 80.026 13.9149 80.026 13.2732C80.026 12.6315 79.821 12.1038 79.4128 11.6901C79.0055 11.2764 78.5054 11.0705 77.9143 11.0705C77.3232 11.0705 76.824 11.2773 76.4158 11.6901C76.0085 12.1038 75.8035 12.6315 75.8035 13.2732C75.8035 13.9149 76.0085 14.4426 76.4158 14.8563Z" stroke="#202939" stroke-width="0.183866" stroke-miterlimit="10"/>
<path d="M81.7442 16.0312V10.5152H82.6066L85.2873 14.8057H85.3177L85.2873 13.743V10.5152H85.9961V16.0312H85.2561L82.4512 11.532H82.4209L82.4512 12.5948V16.0312H81.7442Z" stroke="#202939" stroke-width="0.183866" stroke-miterlimit="10"/>
<path fill-rule="evenodd" clip-rule="evenodd" d="M21.6076 11.3951C21.4981 11.6416 21.4375 11.9442 21.4375 12.2963V32.6282C21.4375 32.9754 21.4962 33.2738 21.6025 33.518L32.6657 22.4532L21.6076 11.3951ZM22.2365 34.1841C22.6477 34.3641 23.1861 34.31 23.7735 33.9769L36.7918 26.5792L33.3158 23.1032L22.2365 34.1841ZM37.6215 26.1087L41.7013 23.7907C42.9856 23.0598 42.9856 21.8656 41.7013 21.1357L37.6084 18.81L33.9658 22.4531L37.6215 26.1087ZM36.7794 18.3389L23.7735 10.9486C23.1919 10.6181 22.6583 10.5621 22.2487 10.736L33.3158 21.803L36.7794 18.3389Z" fill="white"/>
</svg>
